<svg width="19" height="19" viewBox="0 0 19 19" fill="none" xmlns="http://www.w3.org/2000/svg">
<path d="M13.0862 1.5H5.08618C2.87704 1.5 1.08618 3.29086 1.08618 5.5V13.5C1.08618 15.7091 2.87704 17.5 5.08618 17.5H13.0862C15.2953 17.5 17.0862 15.7091 17.0862 13.5V5.5C17.0862 3.29086 15.2953 1.5 13.0862 1.5Z" stroke="white" stroke-width="2" stroke-linecap="round" stroke-linejoin="round"/>
<path d="M9.08618 12.5C10.743 12.5 12.0862 11.1569 12.0862 9.5C12.0862 7.84315 10.743 6.5 9.08618 6.5C7.42933 6.5 6.08618 7.84315 6.08618 9.5C6.08618 11.1569 7.42933 12.5 9.08618 12.5Z" stroke="white" stroke-width="2" stroke-linecap="round" stroke-linejoin="round"/>
<path d="M13.5862 5V5.001" stroke="white" stroke-width="2" stroke-linecap="round" stroke-linejoin="round"/>
</svg>
