<!-- icon666.com - MILLIONS OF FREE VECTOR ICONS --><svg version="1.1" id="Layer_1" xmlns="http://www.w3.org/2000/svg" xmlns:xlink="http://www.w3.org/1999/xlink" x="0px" y="0px" viewBox="0 0 355.381 355.381" style="enable-background:new 0 0 355.381 355.381;" xml:space="preserve"><g id="XMLID_26_"><path id="XMLID_27_" d="M50.863,256.295c0.354,0.354,0.73,0.691,1.125,1.014c0.282,0.232,0.578,0.439,0.874,0.647 c0.102,0.071,0.193,0.152,0.298,0.221l0.023,0.017c0.029,0.02,0.059,0.038,0.087,0.058l127.273,84.883 c0.004,0.003,0.009,0.004,0.012,0.007l18.354,12.24l85.124-85.123c52.637-52.637,52.637-138.283,0-190.919l-42.271-42.272 c-17.547-17.545-46.095-17.545-63.641,0c-3.67,3.671-6.625,7.864-8.801,12.412l30.015,30.015l42.426,42.427 c5.858,5.857,5.858,15.356,0.001,21.213c-5.858,5.857-15.355,5.857-21.214,0l-42.427-42.426v-0.001l-70.71-70.71L77.414,0 c-4.496,2.142-8.712,5.064-12.431,8.783c-17.545,17.545-17.546,46.094,0,63.639l38.896,38.896l-53.01,53.067 c-25.29,25.295-25.332,66.424-0.129,91.777C50.782,256.206,50.821,256.253,50.863,256.295z"></path></g></svg>