<svg width="18" height="16" viewBox="0 0 18 16" fill="none" xmlns="http://www.w3.org/2000/svg">
<path fill-rule="evenodd" clip-rule="evenodd" d="M16.6786 0.552195C16.577 0.586101 16.1846 0.734009 16.0727 0.780674C16.04 0.794289 15.8422 0.871533 15.6331 0.952366C15.424 1.0332 15.2315 1.10804 15.2054 1.11869C15.1793 1.12933 14.9868 1.20418 14.7777 1.28501C14.5686 1.36584 14.3762 1.44069 14.35 1.45133C14.3239 1.462 14.1047 1.54754 13.863 1.64141C13.6212 1.73529 13.402 1.82083 13.3759 1.8315C13.3497 1.84214 13.1573 1.91699 12.9482 1.99782C12.7391 2.07865 12.5466 2.15304 12.5205 2.16317C12.4944 2.17326 12.4462 2.19268 12.4136 2.20629C12.3809 2.21991 12.1831 2.29715 11.974 2.37798C11.7649 2.45882 11.5725 2.53366 11.5463 2.54431C11.5202 2.55495 11.3277 2.6298 11.1186 2.71063C10.9095 2.79146 10.7171 2.86631 10.691 2.87695C10.6648 2.88762 10.4456 2.97316 10.2039 3.06703C9.96211 3.16091 9.74292 3.24645 9.71678 3.25711C9.69065 3.26776 9.49819 3.3426 9.2891 3.42344C9.08001 3.50427 8.8822 3.58151 8.84953 3.59513C8.81686 3.60874 8.76875 3.62815 8.74261 3.63825C8.71647 3.64837 8.52401 3.72277 8.31492 3.8036C8.10583 3.88443 7.91337 3.95928 7.88724 3.96992C7.8611 3.98057 7.66864 4.05541 7.45955 4.13625C7.25046 4.21708 7.058 4.29192 7.03187 4.30257C7.00573 4.31324 6.78654 4.39877 6.54478 4.49265C6.30302 4.58653 6.08383 4.67206 6.05769 4.68273C6.03156 4.69338 5.8391 4.76822 5.63001 4.84905C5.42092 4.92989 5.2258 5.00571 5.19638 5.01756C5.16697 5.02944 5.11888 5.04883 5.08946 5.06071C5.06005 5.07257 4.86493 5.14839 4.65584 5.22922C4.44675 5.31005 4.25429 5.3849 4.22815 5.39554C4.20202 5.40619 4.00956 5.48103 3.80047 5.56186C3.59138 5.64269 3.39892 5.71754 3.37278 5.72818C3.34664 5.73885 3.12746 5.82439 2.88569 5.91827C2.64393 6.01214 2.42475 6.09768 2.39861 6.10835C2.37247 6.11902 2.15328 6.20455 1.91152 6.29843C1.66976 6.39231 1.45057 6.47785 1.42444 6.48851C1.3983 6.49916 1.20584 6.574 0.996751 6.65484C0.78766 6.73567 0.595202 6.81042 0.569065 6.82094C0.542929 6.83149 0.484122 6.85383 0.438384 6.87056C-0.191217 7.10101 -0.124236 8.08045 0.521141 8.08045C0.539721 8.08045 0.57952 8.09017 0.609529 8.10203C0.639539 8.11388 0.744298 8.14675 0.842309 8.17502C0.94032 8.20329 1.09001 8.24713 1.17495 8.27244C1.2599 8.29774 1.36682 8.32896 1.41256 8.34182C1.5209 8.37225 1.81185 8.45898 1.88776 8.48348C1.92043 8.494 1.98993 8.51446 2.0422 8.52895C2.1529 8.5596 2.44321 8.64578 2.52929 8.67356C2.56196 8.68408 2.63146 8.70454 2.68373 8.71904C2.73601 8.73351 2.85093 8.76682 2.93916 8.79307C3.02738 8.8193 3.1717 8.86226 3.25992 8.88849C3.34814 8.91475 3.46307 8.94806 3.51534 8.96253C3.56762 8.97702 3.63711 8.99758 3.66978 9.00825C3.70246 9.01889 3.80938 9.05085 3.90739 9.07924C4.0054 9.10761 4.11232 9.13933 4.14499 9.14969C4.17766 9.16007 4.26854 9.18716 4.34695 9.2099C4.53338 9.26398 4.53373 9.26433 4.59527 9.4647C4.62433 9.55934 4.66705 9.69556 4.69024 9.76743C4.71341 9.83931 4.76751 10.0104 4.81047 10.1476C4.85343 10.2848 4.91749 10.488 4.95284 10.599C4.9882 10.7101 5.05225 10.9133 5.09521 11.0505C5.13817 11.1877 5.1922 11.3588 5.21532 11.4307C5.23842 11.5025 5.30207 11.7057 5.35677 11.8821C5.41146 12.0585 5.47562 12.2617 5.49933 12.3335C5.52304 12.4054 5.58719 12.6086 5.64189 12.785C5.69659 12.9614 5.76067 13.1646 5.78431 13.2364C5.80795 13.3083 5.86172 13.4794 5.90385 13.6166C6.08823 14.2174 6.12774 14.3094 6.25975 14.4455C6.45295 14.6445 6.80315 14.7068 7.05784 14.5874C7.17096 14.5343 7.73166 13.9826 9.01633 12.6602C9.44263 12.2214 9.37437 12.2411 9.68299 12.4684C9.94067 12.6582 10.1508 12.8126 10.4534 13.0345C10.8613 13.3336 10.9901 13.4283 11.2639 13.6301C11.4222 13.7468 11.7199 13.9653 11.9254 14.1156C12.131 14.2659 12.4505 14.5002 12.6355 14.6365C12.8206 14.7727 13.0521 14.943 13.1501 15.015C13.2482 15.087 13.3873 15.19 13.4593 15.244C14.1412 15.7548 14.8608 15.475 15.0166 14.6383C15.0251 14.5926 15.0417 14.5124 15.0535 14.4601C15.0652 14.4078 15.0854 14.3116 15.0982 14.2463C15.1111 14.1809 15.1433 14.0259 15.1698 13.9017C15.1963 13.7776 15.2284 13.6225 15.2413 13.5572C15.2542 13.4919 15.2754 13.3903 15.2886 13.3315C15.3017 13.2727 15.3231 13.1711 15.3361 13.1058C15.3491 13.0404 15.3705 12.9388 15.3836 12.88C15.3968 12.8212 15.418 12.7197 15.4309 12.6543C15.4438 12.589 15.4747 12.4393 15.4997 12.3217C15.5979 11.8596 15.6513 11.6048 15.6689 11.5138C15.679 11.4615 15.7003 11.36 15.7163 11.2881C15.7322 11.2162 15.7535 11.1146 15.7636 11.0624C15.7812 10.9714 15.8346 10.7165 15.9328 10.2545C15.9578 10.1369 15.9888 9.98722 16.0016 9.92188C16.0145 9.85653 16.0358 9.75496 16.0489 9.69615C16.062 9.63735 16.0834 9.53577 16.0964 9.47043C16.1094 9.40509 16.1309 9.30351 16.144 9.24471C16.1572 9.1859 16.1774 9.08967 16.1889 9.03087C16.2094 8.92618 16.2697 8.63834 16.3605 8.21113C16.3855 8.09352 16.4165 7.94383 16.4293 7.87849C16.4422 7.81315 16.4634 7.71158 16.4766 7.65277C16.4897 7.59396 16.511 7.49239 16.5238 7.42705C16.5367 7.3617 16.5677 7.21201 16.5927 7.0944C16.6909 6.63238 16.7443 6.37751 16.7619 6.28655C16.772 6.23428 16.7933 6.1327 16.8092 6.06083C16.8252 5.98895 16.8465 5.88738 16.8566 5.83511C16.8742 5.74415 16.9276 5.48927 17.0258 5.02726C17.0508 4.90964 17.0817 4.75995 17.0946 4.69461C17.1075 4.62927 17.1287 4.5277 17.1419 4.46889C17.155 4.41008 17.1764 4.30851 17.1894 4.24317C17.2024 4.17783 17.2238 4.07625 17.237 4.01744C17.2502 3.95864 17.2704 3.86241 17.2819 3.8036C17.3024 3.69891 17.3627 3.41108 17.4534 2.98387C17.4785 2.86626 17.5094 2.71657 17.5223 2.65123C17.5352 2.58589 17.5564 2.48431 17.5696 2.4255C17.5827 2.3667 17.604 2.26512 17.6168 2.19978C17.6297 2.13444 17.6629 1.9794 17.6906 1.85526C17.8947 0.939939 17.4053 0.309816 16.6786 0.552195ZM14.5721 3.22972C14.7364 3.35617 14.6873 3.42372 13.9818 4.04192C13.7661 4.23081 13.5844 4.39096 13.5778 4.39777C13.5713 4.40457 13.4751 4.49018 13.364 4.58802C13.2529 4.68584 13.1567 4.77155 13.1501 4.77844C13.1436 4.78533 12.9618 4.94564 12.7462 5.13468C12.5306 5.32369 12.3488 5.48393 12.3423 5.49075C12.3358 5.49754 12.2395 5.58315 12.1285 5.681C12.0174 5.77882 11.9211 5.86452 11.9146 5.87141C11.9081 5.8783 11.7263 6.03861 11.5107 6.22765C11.2951 6.41666 11.1133 6.5769 11.1068 6.58372C11.1002 6.59052 11.004 6.67613 10.8929 6.77397C10.7818 6.87179 10.6856 6.95749 10.6791 6.96439C10.6725 6.97128 10.4908 7.13159 10.2751 7.32062C10.0595 7.50964 9.87776 7.66988 9.87122 7.67669C9.86469 7.68349 9.76846 7.7691 9.65738 7.86694C9.5463 7.96477 9.45007 8.05047 9.44354 8.05736C9.437 8.06425 9.25524 8.22456 9.03961 8.4136C8.82399 8.60261 8.64222 8.76285 8.63569 8.76967C8.62915 8.77646 8.53292 8.86207 8.42185 8.95992C8.31077 9.05774 8.21454 9.14344 8.208 9.15033C8.20147 9.15722 8.0197 9.31753 7.80408 9.50657C7.58845 9.69558 7.40669 9.85573 7.40015 9.86243C7.39362 9.8691 7.2957 9.95783 7.18253 10.0596C6.96149 10.2583 6.87743 10.3916 6.87743 10.5434C6.87743 10.5915 6.86747 10.6958 6.8553 10.7753C6.84312 10.8548 6.82114 11.0321 6.80643 11.1693C6.79175 11.3065 6.77022 11.499 6.75862 11.597C6.74703 11.695 6.72564 11.8874 6.7111 12.0247C6.63483 12.7446 6.58831 13.0676 6.55721 13.0934C6.50862 13.1337 6.46117 13.068 6.40312 12.88C6.37288 12.782 6.32954 12.643 6.30682 12.5711C6.26315 12.4329 6.15302 12.0765 6.06827 11.7989C6.04033 11.7075 5.9986 11.5738 5.97553 11.5019C5.95248 11.4301 5.90926 11.2911 5.87949 11.1931C5.84972 11.095 5.80636 10.956 5.78314 10.8842C5.75991 10.8123 5.70704 10.6412 5.66565 10.504C5.62426 10.3668 5.57139 10.1957 5.54816 10.1238C5.52494 10.052 5.4831 9.91831 5.45518 9.82683C5.42729 9.73536 5.37233 9.5602 5.33308 9.43759C5.16431 8.91031 5.16279 8.91233 6.18838 8.27816C6.69989 7.96187 6.83884 7.87571 7.04375 7.74781C7.14176 7.68663 7.29679 7.59049 7.38827 7.53418C7.47975 7.47785 7.62664 7.38525 7.71469 7.32842C7.80275 7.27158 7.8804 7.22508 7.88724 7.22508C7.89408 7.22508 7.97173 7.17863 8.05979 7.12184C8.23119 7.01134 8.50422 6.84012 8.75449 6.68625C9.05385 6.5022 9.24343 6.38473 9.41978 6.27405C9.51779 6.21254 9.75836 6.06309 9.95438 5.94196C10.5026 5.60313 10.6058 5.5392 10.7979 5.4193C10.8959 5.35812 11.0509 5.26198 11.1424 5.20567C11.2339 5.14934 11.3808 5.05674 11.4688 4.99991C11.5569 4.94307 11.6345 4.89657 11.6414 4.89657C11.6482 4.89657 11.7259 4.85012 11.8139 4.79334C11.9853 4.68283 12.2583 4.51161 12.5086 4.35774C12.808 4.17369 12.9976 4.05622 13.1739 3.94554C13.2719 3.88403 13.5125 3.73448 13.7085 3.61319C13.9045 3.49189 14.139 3.34612 14.2295 3.28924C14.4082 3.17699 14.4859 3.16348 14.5721 3.22972Z" fill="white"/>
</svg>
