<svg width="28" height="16" viewBox="0 0 28 16" fill="none" xmlns="http://www.w3.org/2000/svg">
<path fill-rule="evenodd" clip-rule="evenodd" d="M11.4247 0.523671C10.429 0.612474 9.85899 0.842052 9.57732 1.26771C9.44451 1.46834 9.46671 1.51521 9.72371 1.57691C10.5721 1.7806 10.8832 2.16704 11.0549 3.23016C11.1226 3.64919 11.1246 6.09665 11.0576 6.48575C10.8788 7.52358 10.6948 7.83784 10.2697 7.83141C9.74414 7.82348 8.92475 6.8734 7.87445 5.05408C7.83707 4.98936 7.71615 4.78084 7.60573 4.59076C7.42828 4.28525 6.81027 3.05197 6.64874 2.68103C6.61587 2.60552 6.54292 2.44172 6.48667 2.31703C6.43042 2.19238 6.38437 2.08094 6.38437 2.06941C6.38437 1.82928 6.01108 1.38699 5.68701 1.2432L5.47999 1.15129L3.49047 1.15271C0.915184 1.15451 0.740677 1.19079 0.737382 1.72506C0.736009 1.94413 0.749227 1.98214 1.08997 2.73986C1.51001 3.67402 2.30289 5.26291 2.82704 6.22099C2.9067 6.36663 3.03704 6.60487 3.11667 6.75051C3.19629 6.89611 3.3486 7.16531 3.45509 7.34868C3.56162 7.53205 3.68369 7.74386 3.72636 7.81937C3.76904 7.89487 3.81783 7.9743 3.83482 7.99587C3.8518 8.01745 3.90067 8.09688 3.94343 8.17238C4.18238 8.59427 5.14706 10.0711 5.40389 10.4081C5.46144 10.4837 5.63355 10.7131 5.78641 10.9181C7.43585 13.1297 9.35006 14.5647 11.3854 15.1156C11.8314 15.2363 11.9652 15.268 12.2091 15.3105C12.3601 15.3368 12.5684 15.3743 12.6719 15.3936C12.9676 15.4489 15.3134 15.4384 15.4815 15.381C15.8841 15.2436 16.1119 14.948 16.1119 14.5632C16.1119 13.5704 16.3833 12.5884 16.7563 12.2309C17.3167 11.6939 17.8467 11.9907 19.2461 13.6253C20.2111 14.7524 20.8638 15.2291 21.7695 15.4682C22.0962 15.5544 26.0387 15.4493 26.3535 15.3459C27.7952 14.8727 27.1209 13.5653 23.8503 10.493C22.6062 9.32431 22.5211 9.01774 23.165 8.02349C23.2809 7.84451 23.4851 7.55327 23.6189 7.37629C23.8661 7.04932 24.4294 6.31838 24.5169 6.21118C24.558 6.16082 25.0263 5.53571 25.2514 5.23059C26.6227 3.37255 27.2799 2.01563 27.0366 1.54506C26.8298 1.14514 26.7578 1.13647 23.8979 1.16722C20.9327 1.19911 21.0624 1.16993 20.7835 1.86713C20.764 1.91569 20.7111 2.03905 20.6658 2.14127C20.6205 2.24352 20.5834 2.33566 20.5834 2.34602C20.5834 2.35641 20.5413 2.45812 20.4898 2.57199C20.4383 2.68589 20.3574 2.86734 20.3101 2.97521C20.1435 3.35509 19.7011 4.23418 19.5108 4.56378C19.4049 4.74715 19.2861 4.95335 19.2469 5.02203C19.1755 5.14727 19.0682 5.31715 18.6695 5.93662C17.3513 7.98485 16.4419 8.3441 16.1523 6.93094C16.103 6.69042 16.1161 4.1371 16.1746 2.60258C16.2104 1.66019 16.1038 1.21048 15.7761 0.92203C15.5912 0.75929 15.3933 0.684725 14.8175 0.560895C14.5586 0.505236 11.9522 0.476642 11.4247 0.523671Z" fill="white"/>
</svg>
